PathFileType	4	(X/Y/Z)	Patient4_TMGait_0pt2_01_right_16.trc.trc
DataRate	CameraRate	NumFrames	NumMarkers	Units	OrigDataRate	OrigDataStartFrame	OrigNumFrames
41.916167664671	41.916167664671	4	33	mm	41.916167664671	71	       141
Frame#	Time	Sacral			L.Shoulder			Chest			R.Shoulder			Neck			R.ASIS			L.ASIS			R.Thigh.Superior			R.Thigh.Lateral			R.Thigh.Inferior			R.Patella			L.Thigh.Superior			L.Thigh.Lateral			L.Thigh.Inferior			L.Patella			L.Shank.Superior			L.Shank.Lateral			L.Shank.Inferior			R.Shank.Superior			R.Shank.Lateral			R.Shank.Inferior			R.Heel			R.Midfoot.Superior			R.Midfoot.Lateral			R.Toe			L.Heel			L.Midfoot.Lateral			L.Midfoot.Superior			L.Toe			L.Elbow			L.Wrist			R.Elbow			R.Wrist			
		X1	Y1	Z1	X2	Y2	Z2	X3	Y3	Z3	X4	Y4	Z4	X5	Y5	Z5	X6	Y6	Z6	X7	Y7	Z7	X8	Y8	Z8	X9	Y9	Z9	X10	Y10	Z10	X11	Y11	Z11	X12	Y12	Z12	X13	Y13	Z13	X14	Y14	Z14	X15	Y15	Z15	X16	Y16	Z16	X17	Y17	Z17	X18	Y18	Z18	X19	Y19	Z19	X20	Y20	Z20	X21	Y21	Z21	X22	Y22	Z22	X23	Y23	Z23	X24	Y24	Z24	X25	Y25	Z25	X26	Y26	Z26	X27	Y27	Z27	X28	Y28	Z28	X29	Y29	Z29	X30	Y30	Z30	X31	Y31	Z31	X32	Y32	Z32	X33	Y33	Z33	

71	37.110000000000	682.455403438780	998.550577869425	603.985987308224	802.195106670971	1419.765356335714	377.428072547770	943.354247903264	1358.285586515221	509.704553567126	905.940812426055	1438.457834267255	695.571860515074	820.179108772006	1485.174402641987	530.931251495643	929.070817413084	933.041485234783	673.871660111912	863.715475114136	955.238373925031	406.322480962352	942.143028341914	724.597938019058	625.776194101113	862.227343613961	614.038841102966	692.367586504926	914.528120745965	563.756230682994	595.682811923493	904.619972634760	472.559093859244	595.904377685945	941.682406255823	766.057093815549	426.497311106718	880.823207589016	641.370630975518	346.776733915911	984.213580796879	580.713174199343	400.745314270708	1001.339167009276	515.146587067489	395.899996910387	989.365349307122	443.851147052228	377.357344922581	925.021837015029	319.298325898859	311.948637246295	1010.789665616229	215.003578904094	360.278252856534	861.809163727828	386.783673222928	602.303276039133	785.363979046913	289.725982144171	670.043703000526	797.909310171152	196.807680026768	594.883378997604	637.427076553058	43.725152639078	575.320821350079	813.460383402238	95.668562574469	594.970612908228	727.594726379396	36.811501646262	641.310012072374	934.066181147513	40.877121618265	609.838690987163	922.186700616071	37.777396207462	379.059554287334	1000.531931481069	44.592527585654	303.352498619444	1072.799082696454	117.932885009896	332.838595952555	1206.642111161525	85.642742029025	311.218693076276	644.932416291895	1099.318436186074	325.820998868123	598.608872739159	848.265526665841	388.502113183055	1112.468387290117	1178.764501893720	816.462940553138	1354.845264868845	1243.265111622344	760.618605663989	
72	37.133857142857	683.217493379132	998.121500386355	601.145132514297	803.105734539683	1418.814621343542	373.635595367939	944.302111093615	1357.416418787921	506.025437983289	906.770256524659	1437.754215292714	691.691453234228	820.922717426077	1484.484913255011	527.106553606563	929.846090616350	932.455115378783	671.279497637812	864.369790657698	953.889619320160	403.781347209283	941.742666601115	723.625020777464	623.778078774388	860.882157074195	613.710691923604	690.654870258956	912.676418218613	562.809804689015	594.169170349312	901.982289352936	471.637249914440	594.617852478412	941.488668678221	763.523138087067	424.075294260779	878.334633966630	639.058764545994	345.664808954316	981.370055087146	577.924677279678	399.198059553528	997.147208859907	512.632657486146	394.871916723828	985.967720519463	441.484625547757	376.396768426463	922.041753716104	316.690949006757	311.575639536649	1007.915783299857	212.924652891012	360.459526293320	858.747446522797	386.114013310137	601.215173982784	781.826459446594	289.690739305546	669.391454573760	793.721665981860	196.493353069507	594.469926441323	632.633976309862	43.770801647369	575.317234032255	808.634498241938	95.637135862631	594.913439263471	722.790610568352	36.809268371385	641.294838014135	929.260704860510	40.794823863814	609.857151404394	919.063894324355	36.991750740408	379.345931867562	997.846743180771	42.980150154618	304.057797227205	1070.435729816688	115.534036726448	334.005926139534	1204.056123801341	82.013200938001	313.261484683601	648.079657516926	1096.828158581133	323.322130015626	602.894599999523	845.709108616865	386.767429342140	1116.347289042174	1180.451950873238	810.258696468025	1356.397998553435	1250.138664768953	751.374628041513	
73	37.157714285714	684.206008593893	997.729309173468	597.886040108196	804.441832978146	1417.951622161185	369.584035520455	945.543190922077	1356.613595720099	502.230308301624	907.693389804956	1437.093452677800	687.670827272289	821.900149825708	1483.864097167863	523.065339924571	930.763358558663	931.900735893525	668.448282486449	865.398279065203	952.644186487605	400.989048821997	941.566775663722	722.690046010722	621.579312450816	859.705825942301	613.446114051728	688.684779872529	911.100962554464	561.892979221728	592.477866048790	899.653649144160	470.716933505802	593.193293122682	941.820171938794	761.290492770212	421.429238422183	876.719337521608	636.959054368119	344.276570738458	979.400305966044	575.414691860937	397.499305312189	994.046107621304	510.299090513252	393.629179006722	983.296631915550	439.222926795067	375.292346136024	919.262750997753	314.392490735042	311.086618856016	1004.852253062740	210.796724261313	360.485550985481	855.892642297171	385.485028262419	600.000686831413	778.396485833498	289.783239947685	668.635065515560	789.627367263548	196.241826234411	594.006255616843	627.874987395499	43.936531951928	575.303268740713	803.850013532001	95.624251257679	594.862530179277	718.013598870121	36.846863095914	641.252428252257	924.476335866929	40.663824896379	609.887604963827	914.935007576604	36.600279800179	379.590061364425	994.142322539296	41.335867294391	304.677400551187	1067.460464874371	112.731529385228	335.038023697272	1200.681175408627	77.275550166771	315.139639692681	651.789396174034	1094.462432042729	319.702490358477	607.835984937978	843.164358072398	383.252566822709	1119.617840638990	1181.639902899498	804.173911122801	1357.685316532263	1255.143070101223	742.575243804416	
74	37.181571428571	685.420149460395	997.453430009914	594.213196368073	806.157270964926	1417.263081544457	365.318842938245	947.062166316279	1355.959127068460	498.323414552732	908.745627377299	1436.558731488258	683.525225892341	823.109208928415	1483.385081347287	518.845735027101	931.817458160174	931.436235429538	665.353131370685	866.785342525716	951.619843677587	397.917727677786	941.535392881552	721.831704567683	619.188407082307	858.589180602124	613.310785407651	686.480738726717	909.690101004196	561.048274280664	590.648107437964	897.502280955633	469.864879337961	591.673749231392	942.684153991069	759.499876395030	418.565639739857	876.060252050836	635.195745921880	342.539992085406	978.392821541773	573.314509909933	395.594654349281	992.148270076740	508.273930277194	392.140325170994	981.490572821409	437.191987496125	374.023089957021	916.938975407965	312.490149537157	310.391514918791	1001.865207628125	208.748024469049	360.323437858242	853.154443146659	384.965522144432	598.706490166097	774.996072771412	290.052291016219	667.801222069491	785.602568422977	196.102185837145	593.514210367486	623.153122331820	44.255321887313	575.282527970992	799.122537334468	95.638707299694	594.824912910811	713.267474526147	36.941668352613	641.185484198411	919.713803329041	40.485729961832	609.929499976078	910.220355827915	36.540193158028	379.749016782768	989.813460057267	39.763048022302	305.148548102235	1064.148285580448	109.767549802455	335.864542329533	1196.851141793727	71.926067644133	316.735944940947	655.884902635544	1092.404031839369	315.028648301643	613.201267195479	840.812571119438	378.030179934322	1122.409583605159	1182.482337493497	798.260385132467	1358.878767349229	1258.584076622716	734.269453352118	
